# xmcd
#
# Track frame offsets:
#	150
#	19985
#	36422
#	54462
#	80385
#	99642
#	120435
#	140915
#	159102
#	182434
#
# Disc length: 2752 seconds
#
# Revision: 3
# Processed by: cddbd v1.5.2PL0 Copyright (c) Steve Scherf et al.
# Submitted via: EZCDAudioConverter 8.0.2.1
#
DISCID=7c0abe0a
DTITLE=Thanh Tuyền, Duy Khánh, Elvis Phương - Cô Hàng Xóm
DYEAR=1990
DGENRE=Contemporary Pop
TTITLE0=Duy Khánh - Chiều hành quân
TTITLE1=Elvis Phuong, Thanh Tuyền - Lối về xóm nhỏ
TTITLE2=Thanh Tuyền - Chiều cuối tuần
TTITLE3=Duy Khánh - Lời tình viết vội
TTITLE4=Thanh Tuyền - Bóng nhỏ đường chiều
TTITLE5=Elvis Phương - Phiên gác đêm xuân
TTITLE6=Thanh Tuyền - Xin thời gian qua mau
TTITLE7=Elvis Phương - Hàng hàng lớp lớp
TTITLE8=Thanh Tuyền - Nhớ người thương binh
TTITLE9=Duy Khánh - Cho một người nằm xuống
EXTD=
EXTT0=
EXTT1=
EXTT2=
EXTT3=
EXTT4=
EXTT5=
EXTT6=
EXTT7=
EXTT8=
EXTT9=
PLAYORDER=
